<?xml version="1.0" encoding="UTF-8" standalone="no"?>
<svg
   xmlns:dc="http://purl.org/dc/elements/1.1/"
   xmlns:cc="http://creativecommons.org/ns#"
   xmlns:rdf="http://www.w3.org/1999/02/22-rdf-syntax-ns#"
   xmlns:svg="http://www.w3.org/2000/svg"
   xmlns="http://www.w3.org/2000/svg"
   viewBox="0 0 63.439999 27.279999"
   height="27.279999"
   width="63.439999"
   xml:space="preserve"
   id="svg10"
   version="1.1"><metadata
     id="metadata16"><rdf:RDF><cc:Work
         rdf:about=""><dc:format>image/svg+xml</dc:format><dc:type
           rdf:resource="http://purl.org/dc/dcmitype/StillImage" /><dc:title></dc:title></cc:Work></rdf:RDF></metadata><defs
     id="defs14" /><g
     transform="matrix(1.3333333,0,0,-1.3333333,-111.84,657.91998)"
     id="g18"><path
       id="path72"
       style="fill:#000000;fill-opacity:1;fill-rule:nonzero;stroke:none"
       d="m 83.88,492.78 h 47.58 v 0.66 H 83.88 Z" /><path
       id="path74"
       style="fill:#000000;fill-opacity:1;fill-rule:nonzero;stroke:none"
       d="m 83.88,487.86 h 47.58 v 0.59998 H 83.88 Z" /><path
       id="path76"
       style="fill:#000000;fill-opacity:1;fill-rule:nonzero;stroke:none"
       d="m 83.88,482.88 h 47.58 v 0.60001 H 83.88 Z" /><path
       id="path78"
       style="fill:#000000;fill-opacity:1;fill-rule:nonzero;stroke:none"
       d="m 83.88,472.98 h 47.58 v 0.59998 H 83.88 Z" /><path
       id="path80"
       style="fill:#000000;fill-opacity:1;fill-rule:nonzero;stroke:none"
       d="m 83.88,477.9 h 47.58 v 0.60001 H 83.88 Z" /><g
       transform="translate(111.3,487.2)"
       id="g82"><path
         id="path84"
         style="fill:#000000;fill-opacity:1;fill-rule:nonzero;stroke:none"
         d="M 0,0 C 0,-1.14 0.96,-1.86 2.16,-1.86 4.14,-1.86 6.6,0 6.6,1.86 6.6,3 5.7,3.72 4.44,3.72 1.98,3.72 0,1.92 0,0" /></g><g
       transform="translate(111.3,479.76)"
       id="g86"><path
         id="path88"
         style="fill:#000000;fill-opacity:1;fill-rule:nonzero;stroke:none"
         d="M 0,0 C 0,-1.14 0.96,-1.86 2.16,-1.86 4.14,-1.86 6.6,0 6.6,1.86 6.6,3 5.7,3.72 4.44,3.72 1.98,3.72 0,1.92 0,0" /></g><g
       transform="translate(86.64,475.44)"
       id="g90"><path
         id="path92"
         style="fill:#000000;fill-opacity:1;fill-rule:nonzero;stroke:none"
         d="m 0,0 c 0.12,0 0.24,0.06 0.36,0.12 4.92,2.4 10.08,5.94 10.08,12 0,3.48 -2.1,5.82 -5.58,5.82 -3.48,0 -5.04,-2.52 -5.04,-4.44 0,-1.62 0.84,-3 2.46,-3 1.26,0 2.16,0.9 2.16,2.1 0,1.32 -0.96,2.1 -1.92,2.1 -0.54,0 -0.78,-0.12 -1.02,-0.12 -0.24,0 -0.3,0.12 -0.3,0.36 0,0.78 1.2,2.22 3.24,2.22 2.1,0 3,-2.04 3,-5.22 C 7.44,6.36 4.68,3.24 0.06,0.6 -0.12,0.48 -0.24,0.42 -0.24,0.24 -0.24,0.12 -0.18,0 0,0 Z m 12.42,14.1 c 0.6,0 1.08,0.48 1.08,1.08 0,0.66 -0.48,1.14 -1.08,1.14 -0.6,0 -1.08,-0.48 -1.08,-1.14 0,-0.6 0.48,-1.08 1.08,-1.08 z m 0,-4.98 c 0.66,0 1.08,0.48 1.08,1.08 0,0.6 -0.42,1.08 -1.08,1.08 -0.6,0 -1.08,-0.48 -1.08,-1.08 0,-0.6 0.48,-1.08 1.08,-1.08" /></g></g></svg>