<?xml version="1.0" encoding="UTF-8" standalone="no"?>
<svg
   xmlns:dc="http://purl.org/dc/elements/1.1/"
   xmlns:cc="http://creativecommons.org/ns#"
   xmlns:rdf="http://www.w3.org/1999/02/22-rdf-syntax-ns#"
   xmlns:svg="http://www.w3.org/2000/svg"
   xmlns="http://www.w3.org/2000/svg"
   viewBox="0 0 63.439999 30.639959"
   height="30.639959"
   width="63.439999"
   xml:space="preserve"
   id="svg10"
   version="1.1"><metadata
     id="metadata16"><rdf:RDF><cc:Work
         rdf:about=""><dc:format>image/svg+xml</dc:format><dc:type
           rdf:resource="http://purl.org/dc/dcmitype/StillImage" /><dc:title></dc:title></cc:Work></rdf:RDF></metadata><defs
     id="defs14" /><g
     transform="matrix(1.3333333,0,0,-1.3333333,-111.84,750.47994)"
     id="g18"><path
       id="path42"
       style="fill:#000000;fill-opacity:1;fill-rule:nonzero;stroke:none"
       d="m 83.88,562.2 h 47.58 v 0.65997 H 83.88 Z" /><path
       id="path44"
       style="fill:#000000;fill-opacity:1;fill-rule:nonzero;stroke:none"
       d="m 83.88,557.28 h 47.58 v 0.59998 H 83.88 Z" /><path
       id="path46"
       style="fill:#000000;fill-opacity:1;fill-rule:nonzero;stroke:none"
       d="m 83.88,552.3 h 47.58 v 0.65997 H 83.88 Z" /><path
       id="path48"
       style="fill:#000000;fill-opacity:1;fill-rule:nonzero;stroke:none"
       d="m 83.88,542.4 h 47.58 v 0.59998 H 83.88 Z" /><path
       id="path50"
       style="fill:#000000;fill-opacity:1;fill-rule:nonzero;stroke:none"
       d="m 83.88,547.32 h 47.58 v 0.66003 H 83.88 Z" /><g
       transform="translate(111.3,541.74)"
       id="g52"><path
         id="path54"
         style="fill:#000000;fill-opacity:1;fill-rule:nonzero;stroke:none"
         d="M 0,0 C 0,-1.14 0.96,-1.86 2.16,-1.86 4.14,-1.86 6.6,0 6.6,1.92 6.6,3 5.7,3.78 4.44,3.78 1.98,3.78 0,1.92 0,0" /></g><g
       transform="translate(111.3,549.18)"
       id="g56"><path
         id="path58"
         style="fill:#000000;fill-opacity:1;fill-rule:nonzero;stroke:none"
         d="M 0,0 C 0,-1.14 0.96,-1.86 2.16,-1.86 4.14,-1.86 6.6,0 6.6,1.92 6.6,3 5.7,3.78 4.44,3.78 1.98,3.78 0,1.92 0,0" /></g><g
       transform="translate(86.64,544.86)"
       id="g60"><path
         id="path62"
         style="fill:#000000;fill-opacity:1;fill-rule:nonzero;stroke:none"
         d="m 0,0 c 0.12,0 0.24,0.06 0.36,0.12 4.92,2.4 10.08,5.94 10.08,12.06 0,3.48 -2.1,5.76 -5.58,5.76 -3.48,0 -5.04,-2.52 -5.04,-4.44 0,-1.62 0.84,-3 2.46,-3 1.26,0 2.16,0.9 2.16,2.16 0,1.26 -0.96,2.04 -1.92,2.04 -0.54,0 -0.78,-0.12 -1.02,-0.12 -0.24,0 -0.3,0.18 -0.3,0.36 0,0.78 1.2,2.28 3.24,2.28 2.1,0 3,-2.1 3,-5.22 C 7.44,6.42 4.68,3.3 0.06,0.6 -0.12,0.54 -0.24,0.42 -0.24,0.24 -0.24,0.12 -0.18,0 0,0 Z m 12.42,14.1 c 0.6,0 1.08,0.48 1.08,1.14 0,0.6 -0.48,1.08 -1.08,1.08 -0.6,0 -1.08,-0.48 -1.08,-1.08 0,-0.66 0.48,-1.14 1.08,-1.14 z m 0,-4.98 c 0.66,0 1.08,0.48 1.08,1.08 0,0.66 -0.42,1.08 -1.08,1.08 -0.6,0 -1.08,-0.42 -1.08,-1.08 0,-0.6 0.48,-1.08 1.08,-1.08" /></g></g></svg>